<?xml version="1.0" encoding="UTF-8"?>
<svg xmlns="http://www.w3.org/2000/svg" xmlns:xlink="http://www.w3.org/1999/xlink" version="1.1" id="Ebene_1" x="0px" y="0px" viewBox="0 0 3480.5 1859.3" style="enable-background:new 0 0 3480.5 1859.3;" xml:space="preserve">
<style type="text/css">
	.st0{fill:url(#SVGID_1_);}
	.st1{fill:#303030;}
	.st2{fill:#AAB0BC;}
	.st3{fill:none;}
	.st4{fill:#8CC63F;}
	.st5{fill:#6EA920;}
	.st6{fill:url(#SVGID_00000110451010470626714760000001086225378477883815_);}
	.st7{fill:#F36D6D;}
	.st8{fill:#F4D34A;}
	.st9{opacity:0.5;fill:#E55C4E;enable-background:new    ;}
	.st10{fill:#EF9797;}
	.st11{fill:#CED4DD;}
	.st12{clip-path:url(#SVGID_00000027606990073153774760000012621730020958401209_);}
	.st13{fill:none;stroke:#B6BDCC;stroke-width:5;stroke-linecap:round;stroke-linejoin:round;}
	.st14{fill:#1C1C1B;}
	.st15{clip-path:url(#SVGID_00000052103521205420077260000011808019652108491685_);}
	.st16{opacity:0.2;fill:url(#SVGID_00000062909255559110172330000018445811699958651807_);enable-background:new    ;}
	.st17{fill:none;stroke:#AAB0BC;stroke-width:30;stroke-linecap:round;stroke-miterlimit:10;}
	.st18{fill:none;stroke:#AAB0BC;stroke-width:37.42;stroke-linecap:round;stroke-linejoin:round;}
	.st19{fill:#B6BDCC;stroke:#303030;stroke-width:20;stroke-miterlimit:10;}
	.st20{fill:#B6BDCC;}
	.st21{fill:none;stroke:#1C1C1B;stroke-width:5;stroke-linecap:round;stroke-linejoin:round;}
	.st22{fill:url(#SVGID_00000164472463678570968180000012412655436244263051_);}
	.st23{fill:#F4B8B8;}
	.st24{fill:#EEA1A5;}
	.st25{fill:url(#SVGID_00000178168196075535824500000006249270681020501919_);}
	.st26{fill:#141414;}
	.st27{fill:#FFFFFF;}
	.st28{fill:#B78248;}
	.st29{fill:url(#SVGID_00000137845964239266587700000001091378698537176192_);}
	.st30{fill:#8C6226;}
	.st31{fill:none;stroke:#B78248;stroke-width:19.4;stroke-miterlimit:10;}
	.st32{fill:none;stroke:#B6BDCC;stroke-width:19.4;stroke-miterlimit:10;}
	.st33{fill:#E4E8EC;}
	.st34{fill:none;stroke:#CED4DD;stroke-width:5;stroke-linecap:round;stroke-linejoin:round;}
	.st35{fill:none;stroke:#AAB0BC;stroke-width:30;stroke-linecap:round;stroke-linejoin:round;}
	.st36{clip-path:url(#SVGID_00000052070440651611185060000003312208501886949256_);}
	.st37{clip-path:url(#SVGID_00000058553037104519687540000006464591136317627832_);}
	.st38{fill:url(#SVGID_00000107567095659779869890000003453367429016023979_);stroke:#B6BDCC;stroke-miterlimit:10;}
	.st39{clip-path:url(#SVGID_00000078011034053443930110000007690224880481045687_);}
	.st40{opacity:0.2;fill:url(#SVGID_00000052785639421569357250000001810807943049375368_);enable-background:new    ;}
</style>
<linearGradient id="SVGID_1_" gradientUnits="userSpaceOnUse" x1="2314.51" y1="793.82" x2="2840.1099" y2="793.82" gradientTransform="matrix(1 0 0 -1 -589.41 2139.72)">
	<stop offset="4.000000e-02" style="stop-color:#E4E8EC"></stop>
	<stop offset="0.78" style="stop-color:#CED4DD"></stop>
</linearGradient>
<rect x="1725.1" y="1063.2" class="st0" width="525.6" height="565.4"></rect>
<rect x="1724.8" y="1181.1" class="st1" width="526.2" height="443.4"></rect>
<path class="st2" d="M1332.4,0.5c-6.6-2-13.6,1.8-15.5,8.4l0,0l0,0l-283,939.1l23.8,7.6l283-939.5C1342.8,9.5,1339,2.5,1332.4,0.5  L1332.4,0.5L1332.4,0.5z"></path>
<path class="st3" d="M1066.5,217.7C1110.2,79.6,1234.3-4.1,1344,30.6"></path>
<path class="st4" d="M881.1,164.1c28.1-94.2,244.9-201.5,448.2-138c196.8,61.5,317.6,262.5,291,358.9L881.1,164.1z"></path>
<path class="st5" d="M881.1,164.1l174.2,52.1c41.5-138.8,163.8-223,274-190C1126-37.4,909.2,69.9,881.1,164.1z"></path>
<path class="st5" d="M1620,384.9l-174.2-52c41.5-138.8-14.6-276.3-124.8-309.2C1525.8,82.1,1648.1,290.7,1620,384.9z"></path>
<linearGradient id="SVGID_00000144333713992306712770000011544206542552619392_" gradientUnits="userSpaceOnUse" x1="1789.02" y1="1694.7164" x2="2314.6201" y2="1694.7164" gradientTransform="matrix(1 0 0 -1.96 -589.52 4395.2939)">
	<stop offset="4.000000e-02" style="stop-color:#E4E8EC"></stop>
	<stop offset="0.78" style="stop-color:#CED4DD"></stop>
</linearGradient>
<rect x="1199.5" y="518.6" style="fill:url(#SVGID_00000144333713992306712770000011544206542552619392_);" width="525.6" height="1110.1"></rect>
<circle class="st7" cx="1086.5" cy="856.5" r="169.9"></circle>
<ellipse transform="matrix(0.7071 -0.7071 0.7071 0.7071 -287.4326 1019.1047)" class="st8" cx="1086.5" cy="856.5" rx="169.9" ry="71.6"></ellipse>
<path class="st8" d="M1191.3,751.8c15.4,15.4,33.2,22.5,40.1,16c-14.1-22.9-33.3-42.1-56.2-56.2  C1168.8,718.5,1175.9,736.4,1191.3,751.8z"></path>
<path class="st8" d="M978.6,964.4c-13.1-13.1-27.9-20.2-36.3-18c13.8,22,32.4,40.6,54.4,54.4C998.8,992.4,991.7,977.5,978.6,964.4z"></path>
<path class="st9" d="M1255.8,863c-40.6,106.4-159.8,159.8-266.2,119.2c-11.7-4.5-23-10-33.7-16.5c60.3,71.9,167.5,81.2,239.4,20.9  C1231.9,955.7,1253.9,910.9,1255.8,863L1255.8,863z"></path>
<path class="st10" d="M2488.3,684.4c0.5,4.7-2.9,8.9-7.6,9.4c-4.3,0.5-8.3-2.4-9.2-6.7c-2.6-12.3-7.4-23.9-14.1-34.5  c-2.6-3.9-1.5-9.2,2.4-11.8s9.2-1.5,11.8,2.4c0,0.1,0.1,0.1,0.1,0.2v0.1c7.8,12.3,13.4,25.8,16.4,40.1  C2488.2,683.8,2488.2,684.1,2488.3,684.4z"></path>
<path class="st10" d="M2425.2,663.8c-5-11.8-5.9-28.3,5.2-34.4s24.3,3.3,32.7,12.8c5.4,6.2,18.6,28.4,22.1,40  c3.6,11.9-2.8,13.1-14.8,19.2C2450.9,711.3,2431.4,678.5,2425.2,663.8z"></path>
<path class="st11" d="M2731.5,906.2c-7,1.5-14.1,3.1-21.2,3.9c-39.5,4.7-78.5-16.2-105.6-45.3s-40.8-47.9-58.3-83.6  c-16.6-33.8-40.2-78.5-60.5-118.3c-16,20.2-41.9,41.2-41.9,41.2s31.6,77.1,35.6,85.8c15.5,33.7,31.9,67.2,52.6,97.9  c24.4,36.2,57.9,69,101.2,80.4c17.6,4.6,35.8,5.4,54,4.2C2704.5,952.1,2719.3,929.9,2731.5,906.2z"></path>
<g>
	<g>
		<defs>
			<path id="SVGID_00000047023429737547926360000014776764258939576506_" d="M2731.5,906.2c-7,1.5-14.1,3.1-21.2,3.9     c-39.5,4.7-78.5-16.2-105.6-45.3s-40.8-47.9-58.3-83.6c-16.6-33.8-40.2-78.5-60.5-118.3c-16,20.2-41.9,41.2-41.9,41.2     s31.6,77.1,35.6,85.8c15.5,33.7,31.9,67.2,52.6,97.9c24.4,36.2,57.9,69,101.2,80.4c17.6,4.6,35.8,5.4,54,4.2     C2704.5,952.1,2719.3,929.9,2731.5,906.2z"></path>
		</defs>
		<clipPath id="SVGID_00000070081499000361744780000017761101931409125277_">
			<use xlink:href="#SVGID_00000047023429737547926360000014776764258939576506_" style="overflow:visible;"></use>
		</clipPath>
		<g style="clip-path:url(#SVGID_00000070081499000361744780000017761101931409125277_);">
			<g>
				<path class="st13" d="M2454.2,746.2l61.3-49.7"></path>
				<path class="st13" d="M2468,786.3c26.3-15.9,51.9-32.7,76.9-50.6"></path>
				<path class="st13" d="M2487.7,831.7l79.2-48.2"></path>
				<path class="st13" d="M2511,878.3l80.9-55.7"></path>
				<path class="st13" d="M2617.6,856.6c-24,23.6-47.4,47.7-70.2,72.4"></path>
				<path class="st13" d="M2653.1,889.8l-65.5,92.9"></path>
			</g>
		</g>
	</g>
</g>
<rect x="2093.4" y="960.6" class="st14" width="110.5" height="52.1"></rect>
<rect x="1760.5" y="556.7" class="st1" width="776.2" height="403.9"></rect>
<path class="st14" d="M1795.7,577.3h706c7.3,0,13.1,5.9,13.1,13.1v336.4c0,7.3-5.9,13.1-13.1,13.1h-706c-7.3,0-13.1-5.9-13.1-13.1  V590.5C1782.5,583.2,1788.4,577.3,1795.7,577.3z"></path>
<path class="st1" d="M2046.4,1012.7h204.4c1.6,0,2.8,1.3,2.8,2.8v10.6c0,1.6-1.3,2.8-2.8,2.8h-204.4c-1.6,0-2.8-1.3-2.8-2.8v-10.6  C2043.6,1013.9,2044.8,1012.7,2046.4,1012.7z"></path>
<g>
	<g>
		<defs>
			<path id="SVGID_00000008834822092917917990000008123795936902709639_" d="M1795.7,577.3h706c7.3,0,13.1,5.9,13.1,13.1v336.4     c0,7.3-5.9,13.1-13.1,13.1h-706c-7.3,0-13.1-5.9-13.1-13.1V590.5C1782.5,583.2,1788.4,577.3,1795.7,577.3z"></path>
		</defs>
		<clipPath id="SVGID_00000113319961039907463300000002594310743114100920_">
			<use xlink:href="#SVGID_00000008834822092917917990000008123795936902709639_" style="overflow:visible;"></use>
		</clipPath>
		<g style="clip-path:url(#SVGID_00000113319961039907463300000002594310743114100920_);">
			
				<linearGradient id="SVGID_00000104676118447554560160000005232450721623419064_" gradientUnits="userSpaceOnUse" x1="3210.5325" y1="1433.412" x2="3423.9126" y2="912.762" gradientTransform="matrix(0.94 0.33 0.33 -0.94 -1342.7212 735.1486)">
				<stop offset="0.5" style="stop-color:#303030"></stop>
				<stop offset="0.82" style="stop-color:#A9ACAE"></stop>
				<stop offset="0.97" style="stop-color:#E4E8EC"></stop>
			</linearGradient>
			<path style="opacity:0.2;fill:url(#SVGID_00000104676118447554560160000005232450721623419064_);enable-background:new    ;" d="     M2343.1,1169.4c-224.9,108.3-495.3,13.3-603.8-212.2L2553.8,565C2662.4,790.5,2568,1061.1,2343.1,1169.4z"></path>
		</g>
	</g>
</g>
<polyline class="st17" points="2534.7,928.6 2279.2,1628.6 1158.3,1628.6 907.8,916.2 "></polyline>
<polyline class="st18" points="2125.6,1721.8 1191.1,1721.8 877,828.5 723.9,828.5 "></polyline>
<circle class="st19" cx="1294.2" cy="1808" r="41.2"></circle>
<ellipse transform="matrix(0.1602 -0.9871 0.9871 0.1602 -93.7648 3505.7927)" class="st19" cx="2013.4" cy="1808" rx="41.2" ry="41.2"></ellipse>
<path class="st20" d="M2124.3,1745.5L2124.3,1745.5c-9.8-1.6-15.9-9-13.8-16.4l5.1-18.1c2.1-7.4,11.7-12.2,21.5-10.6l0,0  c9.8,1.6,15.9,9,13.8,16.4l-5.1,18.1C2143.7,1742.4,2134.1,1747.1,2124.3,1745.5z"></path>
<path class="st14" d="M870.9,874.7L725.5,860c-17.3,0-31.3-10.7-31.3-23.9l0,0c0-13.2,14-23.9,31.3-23.9l129,0.1L870.9,874.7z"></path>
<path class="st14" d="M1820.7,1259.6h348.9c19.6,0,35.4,15.9,35.4,35.4v214c0,19.6-15.9,35.4-35.4,35.4h-348.9  c-19.6,0-35.4-15.9-35.4-35.4v-214C1785.2,1275.4,1801.1,1259.6,1820.7,1259.6z"></path>
<line class="st21" x1="1802.8" y1="1471.6" x2="2187.4" y2="1471.6"></line>
<line class="st21" x1="1802.8" y1="1423.1" x2="2187.4" y2="1423.1"></line>
<line class="st21" x1="1802.8" y1="1374.5" x2="2187.4" y2="1374.6"></line>
<linearGradient id="SVGID_00000044895349406288429450000002572247213128607650_" gradientUnits="userSpaceOnUse" x1="2374.708" y1="910.6199" x2="2793.01" y2="910.6199" gradientTransform="matrix(1 0 0 -1 -589.41 2139.72)">
	<stop offset="4.000000e-02" style="stop-color:#E4E8EC"></stop>
	<stop offset="0.78" style="stop-color:#CED4DD"></stop>
</linearGradient>
<path style="fill:url(#SVGID_00000044895349406288429450000002572247213128607650_);" d="M1793.6,1220.8h401.7  c4.6,0,8.3,3.7,8.3,8.3l0,0c0,4.6-3.7,8.3-8.3,8.3h-401.7c-4.6,0-8.3-3.7-8.3-8.3l0,0C1785.2,1224.6,1788.9,1220.8,1793.6,1220.8z"></path>
<rect x="1725.2" y="1028.9" class="st1" width="535.2" height="33.3"></rect>
<path class="st1" d="M1636.9,1051l0.1-385c0-9.2,7.5-16.7,16.7-16.7l0,0l0,0c9.2,0,16.7,7.5,16.7,16.7l0,0l-0.1,385  c0,9.2-7.5,16.7-16.7,16.7l0,0l0,0C1644.4,1067.6,1636.9,1060.2,1636.9,1051z"></path>
<rect x="1199.5" y="485.2" class="st1" width="535.2" height="33.4"></rect>
<path class="st23" d="M1036.5,312.8c-31.7,58.3-81.8,95.5-144.5,140.3c-8.5,0.8-17.5,0.6-25.2-3.2c-13.9-6.8-16.5-23.9-14.7-35.6  c1.6-9.4,5.9-18.1,12.4-25.1c15.7-7.1,30.7-15.1,44.1-25.5c4.3-3.3,8.6-6.8,12.7-10.4c6.6-5.8,20.6-20.9,26.7-27.5  c14.7-15.8,30.2-25,39.8-44.7c9-18.3,11.3-39.1,8.5-60.6c-4.2-33.2-16.5-70-36.1-99.1c19.5-10.6,18-9.8,40.7-14.8  c16.5,24.7,34.7,65.4,45.9,92c13.1,31,11.7,43.4,7.1,70.7C1051.4,284.7,1044.1,298.9,1036.5,312.8z"></path>
<path class="st24" d="M908.7,363.8c4.3-3.3,8.6-6.8,12.7-10.4c6.6-5.8,20.6-20.9,26.7-27.5c5.8-6.3,11.8-11.5,17.4-16.8  c11,12.2,25.7,21.5,39.8,29.4c3.6,2,7.2,3.9,10.9,5.8C985,385.7,942.7,416.9,892,453.1c-8.5,0.8-17.5,0.6-25.2-3.2  c-13.9-6.8-16.5-23.9-14.7-35.6c1.6-9.4,5.9-18.1,12.4-25.1C880.3,382.2,895.2,374.1,908.7,363.8z"></path>
<linearGradient id="SVGID_00000026159659606645070780000013618018798449693625_" gradientUnits="userSpaceOnUse" x1="1499.6261" y1="1684.1654" x2="1545.4761" y2="1821.7352" gradientTransform="matrix(1 0 0 -1 -589.41 2139.7197)">
	<stop offset="0.18" style="stop-color:#CED4DD"></stop>
	<stop offset="0.98" style="stop-color:#E4E8EC"></stop>
</linearGradient>
<path style="fill:url(#SVGID_00000026159659606645070780000013618018798449693625_);" d="M946.6,301.7c24.4,25,50.5,48.3,77.9,70  c-32.3,27.5-66.3,52.9-101.8,76.1c-10.5,6.8-22.1,13.7-35.7,13c-16.8-0.9-31.8-13.6-38.9-27.8c-16-32-2.9-43.7,20.9-62  C896.4,349.7,922.3,326.5,946.6,301.7z"></path>
<path class="st5" d="M599.5,885.5c-13-5.9-24.4-16-34.4-27.1c3.4,16,7,31.3,39.1,28.8C602.6,886.8,601,886.2,599.5,885.5z"></path>
<path class="st5" d="M766.5,698.7c-10.7-2.9-22.1,0-32.6,3.5c-6.9,2.3-13.7,4.9-20.4,7.9c-43.2,8.4-84.9,22.6-127,35.2  c-50.8,15.2-57.4,36.4-57.4,36.4s-0.2,0.3-0.4,0.9c-0.4,9.8,1.6,19.5,5.8,28.3c1.5,3.3,3.2,6.5,4.9,9.6c5.4,4.4,10.6,9,15.5,13.9  c5.3,5.2,7.5,12.2,9.1,19.3c3.3,3.6,6.6,7,10,10.3c8.2,8,36.7,22.5,36.7,22.5l0,0c0.3-0.1,8.9-1.7,8.9-1.7s27.6-17,35.2-26.5  c9.6-12.1,1.8-18,17.9-18.5c8.7-0.2,17.8,1.6,26.4,3.7c18.7-8.8,37.2-17.8,53.6-30.2c20.5-15.6,37.7-37.6,41.2-63.1  C796.9,729.2,787.1,704.2,766.5,698.7z"></path>
<path class="st4" d="M902.8,691.2c-12.6,3-25,6.7-37,9.9c-16.6,4.5-33.2,8.5-49.5,14c-13.9,4.7-58,4.1-71.3,10.3l0,0  c-12.7,8.9-26.2,16.8-39.5,24.8c-16.9,10.3-32.7,20.8-49.9,30.9c-6.2,3.7-17.8,10.3-24.3,23.3c7.5,18.1,27,30.8,34.7,48.8  c18.5,12.7,35.5,27.6,54.1,40.2c9.4,6.4,19.8,13.1,30.7,18.2c1.9-1.1,2.9-1.7,2.9-1.7l51.7-90.7l60.5-4.1c0,0,31.3,5,42.5-24.7  c5.9-16.1,7.4-24.2,7.1-40.3C911.9,731,905.9,711.1,902.8,691.2z"></path>
<path class="st23" d="M777.7,501.9c35.8-45.1,59.6-95.5,89.5-143.3c-30.7,7.5-52.9,5.3-75.3,4.2c-3-0.1-10.3-0.7-17.6-1.2  C774.3,408.4,774.5,455.2,777.7,501.9z"></path>
<path class="st23" d="M761.7,394.4c1-4.7,4.8-8.5,9.6-10.6c1.4-0.7,5.2-7.5,5.2-17c-0.2-20.5-6.3-53.1-8.1-59.5  c-5.7-20.4-8.6-27.7-12.7-48.3c-1.5-7.4-2.6-14.9-1.1-22.3c3.2-15.3,17.6-27.5,33.8-34.4c20.7-8.8,47.2-10.1,65.9,1.5  s29,33.2,30.8,52.2l7.3,14.7l11.1,13.7l-16.4,6.5c0.2,6,0.3,11.9,0.4,17.9c0.2,8.1,0.2,16.4-3.6,23.8c-3.2,6.2-13.6,10.7-22.4,13.3  c-2.4,0.7-1.3,6.9,1.7,10.2c4,8.6,8.6,16.8,13.9,24.7c-5.5,8-14.3,14.5-24.2,18.7c-12.7,5.5-27,7.6-41.2,8.7c-8,0.6-16,0.8-24,0.7  h-0.9c-6.3-0.1-14.1,0.2-19.7-2.2C761.9,404.1,760.8,399,761.7,394.4z"></path>
<path class="st10" d="M863.7,357c-17.2-7.4-34.9-14.1-49.8-24.7c22,4.6,46,13.5,66.9,4.1c-4.7,4.3-12.5,7.4-19.3,9.4  c-2.4,0.7-1.3,6.9,1.7,10.2L863.7,357z"></path>
<path class="st1" d="M754.5,236.8c3.2-15.3,17.6-27.5,33.8-34.4c20.7-8.8,47-11.5,65.7,0c0,0,0.2,1.5,0.3,1.5  c1.4,0.9-2.5,5.1-3.3,5.7c-2.3,1.8-5.5,2.5-8.4,3.2c-5.6,1.4-11.3,2.4-17,3.1c-8,0.8-13.6,1.9-16.9,6.5c-2.6,3.6-2.6,8.1-2.4,12.4  c0.2,4.9,1.1,9.9,0.5,14.8c-1,8.2-7.5,19.5-16.6,23.3c0.3-0.2-5-5.5-5.4-5.9c-2.5-2.2-5.5-3.9-9.2-2.6c-2.7,1-4.7,3.1-5.7,5.8  c-0.8,2.5-0.9,5.2-0.5,7.8c0.8,7.8,2.4,13.8,9.3,19.1l0,0c1.2,5.1-5.8,9.8-11.6,10.3c-4.6-16-8.4-31.9-11.6-48.1  C754.2,251.7,753,244.1,754.5,236.8z"></path>
<path class="st26" d="M870.4,266.7c1.5-0.3,3,0.2,4,1.2c0.7,0.8,1.1,1.8,1.1,2.8c0.1,1.6-0.7,3.1-2.1,3.9c-0.2,0.1-0.5,0.2-0.7,0.3  c-0.6,0.1-1.2,0.2-1.9,0.1c-0.9,0-1.7-0.3-2.4-0.9c-1.7-1.9-1.6-4.8,0.3-6.5l0,0C869.2,267.2,869.8,266.9,870.4,266.7L870.4,266.7z"></path>
<path class="st1" d="M879.7,258.7c0.6-0.2,1.1-0.6,1.5-1.1c0.8-1.1,0.6-2.8-0.6-3.6l0,0c-0.1-0.1-0.2-0.2-0.4-0.2  c-11.2-6.5-20.8-2-25.6,3.7c-0.9,1.1-0.8,2.7,0.3,3.6l0,0c0.1,0.1,0.3,0.2,0.4,0.3c1.4,0.9,3.3,0.7,4.4-0.6  c6.4-7.7,14.7-3.8,17.1-2.4C877.7,258.9,878.8,259,879.7,258.7z"></path>
<path class="st27" d="M888.3,300.9l-22.2,1.6c2.5,1.9,5.4,3.4,8.4,4.5c4.6,1.4,9.5,1.6,14.2,0.4  C888.7,305.2,888.5,303.1,888.3,300.9z"></path>
<path class="st28" d="M725.1,207.8c32.7-13.4,64.6-28.6,95.5-45.7l57.6,42.7c-2-1.5-34.6,16.6-38.4,18.5c-13,6.5-26,13.2-38.8,20  c-12.6,6.7-25.1,13.6-37.5,20.7c-5,2.8-11.3,11.1-11.3,11.1s-7.7-20.5-9.5-25.5C737.6,235.3,731.7,221.4,725.1,207.8z"></path>
<path class="st1" d="M813.7,218.3c-12.9,6.9-26.3,13.2-39.5,19.7c-6.7,3.3-13.4,6.7-20.3,9.8c-3.4,1.5-6.7,3.3-10.2,4.6  c2.8,7.5,8.5,22.7,8.5,22.7s6.3-8.2,11.3-11.1c12.4-7.1,24.9-14,37.5-20.7c12.8-6.8,25.8-13.5,38.8-20c3.7-1.9,36.3-19.9,38.4-18.5  L860,191.3C845,200.8,829.5,209.8,813.7,218.3z"></path>
<linearGradient id="SVGID_00000106856027110346611850000005504196704794884518_" gradientUnits="userSpaceOnUse" x1="1270.1622" y1="1360.2094" x2="1464.3922" y2="1745.3293" gradientTransform="matrix(1 0 0 -1 -589.41 2139.7197)">
	<stop offset="0.18" style="stop-color:#CED4DD"></stop>
	<stop offset="0.98" style="stop-color:#E4E8EC"></stop>
</linearGradient>
<path style="fill:url(#SVGID_00000106856027110346611850000005504196704794884518_);" d="M930.2,429.8c-4.3-14.4-9.4-28.6-15.3-42.5  c-5.7-13.5-12.2-26.7-19.4-39.4c-14.7,3-28.5,5.4-29.3,3.5c-0.6-1.4-3.1-6-4.6-5.6C835,390,785,466.8,784.9,465.9  c-2.1-30.2-4.9-40.9-6.2-74.3c-0.5-13.6-4.3-52-6.4-65c-0.9-0.1-3.8,3.7-3.8,3.7c-31.1,25.9-50.5,2.3-78.3,30.9  c-0.4,0.5-0.8,1-1.1,1.5c-1,12.7-5.2,64.1-4.8,76.8c1.7,56.9,19.7,111.8,12.4,168.7c0.6,1.3,1.1,2.7,1.7,4  c-6.4,33-19.2,89.7-22.1,109.1c23,4,25.8,22.4,49,25.2s66.5-10,89.8-11.6c11.7-0.8,23.3-2.4,34.7-4.9c6.4-1.4,13-2.5,19.5-1.6  c7.7,1.1,15.1,4.2,22.3,6.7c3.9,1.3,7.8,2.5,11.7,3.4c3.6-32.8,24.1-182.4,25.6-193.9c-0.2,2.5,0.1,0.5,0.5-3  c2.3-20.2,3.6-41.7,4.2-61.4c0.6-16.8,1-25.7,1.7-32.8C933.6,441.5,931.9,435.6,930.2,429.8z"></path>
<path class="st23" d="M604.8,878c0,0-0.6-3.7-0.7-4.6c-3.7-24-13-47.1-30.4-64.5c-10.9-10.9-24.1-18.8-38.3-24.6  c-6.3,13.2-8.4,33.3-3.6,60.9c12,69.5,33.8,199.4,47.5,282.6c4.8-5.6,15,16.4,18.9,10.1c10.5-17,0.7,2.7,10.3-14.9  c4.2-7.8,7.9-15.9,11-24.2C618.5,1050.4,608.9,949.1,604.8,878z"></path>
<path class="st24" d="M585.3,852.1c7.5,9.3,14.1,19.3,19.8,29.8c-0.1-1.3-0.2-2.7-0.2-4c0,0-0.6-3.7-0.7-4.6  c-3.7-24-13-47.1-30.4-64.5c-10.9-10.9-24.1-18.8-38.3-24.6c-2.9,6-4.9,13.6-5.8,22.6C550.9,818.4,570,833.3,585.3,852.1z"></path>
<path class="st1" d="M651.5,1147.1c-11.3-4.2-25.9,1.7-36.4,5.5c-12,4.4-23.5,8.4-36,11.6c-15.7,4-31.6,8.2-46.5,14.5  c-2.4,1-4.8,2.2-7.1,3.5c-0.7,0.7-1.3,1.5-1.9,2.3c-7.6,10.8-9.6,17.5-4.8,23.2c1.7,2,4.4,2.8,6.9,2.1c17-4.8,66.8-18.4,96.9-26.2  c12.1-3.1,30.3-8.5,34.8-21.7C658.9,1155.6,658.3,1149.7,651.5,1147.1z"></path>
<path class="st23" d="M606.5,1153.4c10.4-5.5,26.3-14.9,24.9-28.8c-0.6-6.3-5.3-12.6-7.3-18.7c-5.5-16.9-6.1-35.6-6.7-53.2  c-0.6-16.6-30.9,8.7-47.9,16.6c4.2,24,2.9,56-10.8,69.4c-10.5,10.2-9.5,9.8-21.4,19.8c-3.8,3.3-11.5,9.4-13.9,15.5  c-4.3,10.8-4.6,16.9,0.5,20.8c1.8,1.4,4.2,1.5,6.2,0.4C543.6,1187.7,582.8,1166,606.5,1153.4z"></path>
<path class="st23" d="M718.9,886.7c-3.8-6.1-7.4-12.4-11.2-18.5c-10.4-16.8-21.4-33.5-35-47.8c-8.1-8.6-20.5-20.1-33.2-19.8  c-9.4,12.2-11,34.5-2,69.6c10.8,41.9,27.1,106.2,42.8,168.5c9.9,39.2,22.7,79.9,13.5,135.4c4.3-5.9,30.1-11,33.5-17.6  c9.1-17.8,0.9,2.6,9-15.7c3.6-8.1,6.6-16.5,9-25.1C739.5,1059.2,725.7,949.8,718.9,886.7z"></path>
<path class="st23" d="M718.9,886.7c-3.8-6.1-7.4-12.4-11.2-18.5c-10.4-16.8-21.4-33.5-35-47.8c-8.1-8.6-20.5-20.1-33.2-19.8  c-9.4,12.2-11,34.5-2,69.6c10.8,41.9,27.1,106.2,42.8,168.5c9.9,39.2,22.7,79.9,13.5,135.4c4.3-5.9,30.1-11,33.5-17.6  c9.1-17.8,0.9,2.6,9-15.7c3.6-8.1,6.6-16.5,9-25.1C739.5,1059.2,725.7,949.8,718.9,886.7z"></path>
<path class="st24" d="M699.1,867.5c7.2,7.8,13.8,16.1,20.4,24.4c-0.2-1.8-0.4-3.5-0.6-5.2c-3.8-6.1-7.4-12.4-11.2-18.5  c-10.4-16.8-21.4-33.5-35-47.8c-8.1-8.6-20.5-20.1-33.2-19.8c-4.1,5.3-6.7,12.6-7.6,22C658.2,831.2,680.5,847,699.1,867.5z"></path>
<path class="st1" d="M781.1,1149.5c-1.8-8.1-8-15.4-17-14.8c-18.8,1.4-31.6,22.3-42.6,35.2c-7,8.2-15.1,15.5-22.4,23.3l-4.3,4.7  c-2.9,5.3-6.3,10.4-10.2,15c-2.8,3.4-7.5,7.4-11.7,11.8c-1.1,1.6-2.1,3.2-3.2,4.9c-1.9,3.1-3.7,6.3-5.1,9.7c0,0.6,0,1.1,0,1.7  c0.4,3.9,2.8,7.4,6.2,9.3c2.9,1.6,6.3,1.9,9.6,2c10.8,0.5,22.4-0.2,31.3-6.3c7.7-5.3,13-13.9,19.5-20.5c6.1-6.1,11.9-12.6,17.3-19.3  c6.9-8.5,13.3-17.3,19.4-26.4c4.3-6.4,10-12.1,12.6-19.5C781.8,1156.9,782,1153.1,781.1,1149.5z"></path>
<path class="st23" d="M743.9,1101.4c-3-16.3-29.6,2.3-40.9,17.1c-0.1,18.8-3.2,37.6-9.2,55.4c-2,6-4.6,11.9-7.9,17.3  c-2.4,3.8-5.1,7.4-8.1,10.7c-6.1,6.9-11.1,14.5-10.7,24.2c0.2,3.8,1.3,7.7,4.1,10.2c3.5,3.1,8.6,3.3,13.3,3.1c3.2,0,6.5-0.5,9.6-1.4  c5.5-1.8,10-5.9,13.8-10.3c4.2-5,7.8-10.4,12.4-15.1c5.4-5.5,10.6-11.2,15.4-17.2c5.1-6.3,23.2-29.7,25.5-37.4  C764.3,1147.5,749.5,1132.2,743.9,1101.4z"></path>
<path class="st28" d="M738.4,290.7c1.7-0.6,3.3-1.4,4.9-2.3c44.6-24.8,89.5-49.1,134.8-72.9c5.4-2.8,10.9-5.7,15.1-9.8  c2.6-2.8,4.7-6.1,6-9.7c0.7-1.8-0.3-4.4-2.5-4.4c-0.8,0-1.6,0.3-2.2,0.7c-39.7,18.7-80.8,36.1-119.2,56.6  c-6.7,3.6-61.1,35-44.6,42.1C733.1,292,735.8,291.6,738.4,290.7z"></path>
<path class="st14" d="M538.6,1154.4c6-5.4,15.4-13.7,21.3-19.2c15,14.5,26.6,36.3,30.7,56.8c0,0.2-26.4,7.4-28.1,7.6  C559.5,1184,554.6,1163.6,538.6,1154.4z"></path>
<path class="st14" d="M706.1,1205.3c11,3.1,20.8,12.4,23.9,20.7l16-16.1c1.7-1.7,3.5-3.7,3.4-6.1s-2-4.2-3.9-5.7  c-12.4-9.8-27.3-15.9-42.9-17.6c-4.7-0.5-12.4-0.6-16.5,1.6c0,0-15,21.1-17.6,25.8c4.7-1.6,14.8-3.2,20-3.4  C696.1,1204,698.5,1203.1,706.1,1205.3z"></path>
<path class="st30" d="M566.7,572l242.4-15.3c21-1.3,39.1,14.6,40.5,35.7l7.6,120c1.3,21-14.6,39.1-35.7,40.5l-242.4,15.3  c-21,1.3-39.1-14.6-40.5-35.7l-7.6-120C529.7,591.5,545.7,573.4,566.7,572z"></path>
<path class="st31" d="M645.3,567l-0.8-11.9c-0.6-9.1,6.4-17,15.5-17.5l52.4-3.3c9.1-0.6,17,6.4,17.5,15.5l0.8,11.9"></path>
<line class="st32" x1="574.6" y1="571.5" x2="600.1" y2="569.9"></line>
<line class="st32" x1="775.9" y1="558.8" x2="801.5" y2="557.2"></line>
<path class="st23" d="M637.8,606.6c-2.3-0.8-69.1-32.1-92.6-52.9c-17.6-15.6-23.3-19.8-23.3-19.8l42.3-32.7  c7.9-5.2,26.1-17.1,34.3-21.5c5.1-2.7,10.3-5.3,15.6-7.7c4.7-2.2,9.4-4.1,14.3-5.9c-11.2-16.6-24.5-39.3-32.5-57.5  c-23.7,16.3-47.7,32.2-70.9,49.2c-20.6,15.1-41.9,31.2-58.4,50.9c-5.6,6.8-10.2,14.9-10.7,23.6c-0.7,11.1,5.1,21.7,12.7,29.8  c15.7,16.8,36.2,28.1,56.2,38.8c22.2,11.8,54.3,28.4,81.5,39.5l-28.9-12.9c6,2.5,38.6,19.1,51.7,21.2c8.4,1.3,16.9,2.6,24.9,0.9  c8-1.7,13.3-8.6,14.3-15.7C670.3,621,652.5,611.8,637.8,606.6z"></path>
<path class="st24" d="M585.7,433.5c1.4,7.8,3.5,15.6,6.1,23.1c2.4,7.6,5.1,15,8.3,22.3c4.6-2.4,9.2-4.7,14-6.9s9.4-4.1,14.3-5.9  c-11.2-16.6-24.5-39.3-32.5-57.5c-3.6,2.4-7.1,4.9-10.7,7.3C583.9,421.7,584.8,428,585.7,433.5z"></path>
<path class="st33" d="M711.3,357.4c1.4,9.7,1.6,19.5,0.7,29.2c1.9-12.6,2.7-24.9,1.1-36.2c-0.9,0.4-1.8,0.7-2.7,1  C710.7,353.4,711,355.4,711.3,357.4z"></path>
<path class="st33" d="M685.3,462.4c2.8-4.6,5.3-9.4,7.5-14.2c4.4-9.7,7.9-19.8,10.7-30.2c1.3-5,2.5-10,3.6-15.1  c1.1-5.6,2.2-11.2,2.8-16.9c1.1-11,0.3-22-1.4-33c0-0.3-0.1-0.5-0.1-0.8l-8.7,3.4c-13.5,5.3-26.6,11.4-39.4,18.3  c-22.9,12-45.8,24.1-68.3,37c4.5,11.2,11.3,27.4,15.1,33.8c2,3.4,23.7,39.4,25.3,38.5l40.8-22.1C674.7,460.2,680,461.1,685.3,462.4z  "></path>
<circle class="st27" cx="794.5" cy="697.5" r="25.6"></circle>
<path class="st34" d="M812.9,421.9l15.5,21.7c14.3-29.3,26.4-59.6,36.1-90.7"></path>
<path class="st34" d="M768.8,329.7l-23.2,110.7l34.6-28l5.9,126.4"></path>
<path class="st34" d="M922.2,413.5l10.5,33.4"></path>
<path class="st34" d="M935.8,414.5l3.3,27.3"></path>
<polygon class="st35" points="2279.2,1628.6 1158.3,1628.6 907.8,916.2 2539.2,916.2 "></polygon>
<path class="st23" d="M2740.8,889.8c3.8-3.1,7.9-5.8,12.1-8.2c16-9.6,30-20.7,40-36.7c10.2-16.3,16.2-35.9,14.6-55.2  c-1.8-21.3-12.1-41.4-29.1-54.5c-5.7-4.3-11.7-8.1-18-11.4c-4-1.3-8-2.5-12.2-3.4c-18.6-4.1-36.8-3.6-53.7,6.2  c-21.7,12.5-19.6,32.2-29.2,42.8c-3.8,4.2-34.8,16.6-35.1,17.4c2.5,2.6,13.7,10.9,16.7,13c0.5,0.3,0.8,0.9,0.7,1.5  c-3.9,14.3-11.8,28.4-2.4,45.7c6.4,11.8,32.1,25.2,45.6,28.9c0.5,0.1,0.9,17,1,17.6c5.9,35.9-37.8,106.8-41,125.1  c13.7-1.6,78.6-79.4,92.3-81.1c-3.9-9.2-1-26.4,3.8-32.2c3.8-4.6-19.7-4.6-15.6-8.8C2734.2,893.8,2737.3,891.6,2740.8,889.8z"></path>
<path class="st10" d="M2692,744.9c7.3,6.1,15.2,11.5,23.6,16.1c3.4,1.8,6.9,3.2,10.3,4.9c2.6,1.1,4.9,2.9,6.7,5.2  c1.9,2.7,2.4,6.2,2.4,9.5c0,1.4,0,2.8-0.1,4.2c6.4-6.8,13.7-12.8,21.5-17.9c10.3-6.5,22.6-11,34.9-10c2.2,0.2,4.5,0.5,6.6,1.1  c-4.9-8.8-11.5-16.6-19.5-22.8c-5.7-4.3-11.7-8.1-18-11.4c-4-1.3-8-2.5-12.2-3.4c-18.6-4.1-36.8-3.6-53.7,6.2  c-4.5,2.5-8.5,5.9-11.8,9.8C2685.7,739.4,2688.8,742.2,2692,744.9z"></path>
<path class="st24" d="M2878.9,1735.6c0,0-31.6-71.2-46.4-140.3c-5.6-26.2-15.2-98.5-15.6-125.3c-0.3-22.7,3.1-45.3,6.5-67.7  c9.1-59.9,18.3-119.7,27.5-179.6c-13.6,8.2-30.5,8-45.6,12.9c-41.2,13.2-24.4,67.4-26.4,100.1c-3.1,51.8-6,103.6-8.8,155.4  c-1.4,26-2.6,52.3,1.4,78c4.5,28.3,15.3,55.3,26.5,81.7c13.4,31.6,32.4,68.8,51.1,101.9c6.9,14.8,21.2,34.4,27.5,46.2  c0.4,0.8,0.9,1.5,1.6,2c0.9,0.5,1.9,0.7,2.9,0.6c6.3-0.2,22.1-6.8,22.1-6.8L2878.9,1735.6z"></path>
<path class="st10" d="M2770.1,1491.3c-0.3,6.3-0.6,12.6-0.9,18.9c3.4-0.9,6.8-1.8,10.2-2.6c13-3.1,26.2-5.3,39.5-7.1  c-1.2-12.3-2.1-23-2.2-30.4c-0.4-22.7,3-45.3,6.4-67.7l27-179.7c-13.6,8.2-30.4,8.1-45.5,13c-41.1,13.3-24.2,67.5-26.1,100.2  C2775.6,1387.7,2772.8,1439.5,2770.1,1491.3z"></path>
<path class="st4" d="M2903.1,1789.4c-1.3,1.2-2.8,2.2-4.4,3c-3.9,1.8-8.5,1.4-12.6,0.9c-4.7-0.4-9.3-1.7-13.6-3.6  c-1.2-0.6-2.3-1.3-3.3-2.1c-1.9-1-3.6-2.2-5.2-3.6c-17.5,20.7-23.3,25.2-66.3,46.4l2.7,8.8c22.8-2.3,45.6-5.2,68.3-8.7  c10.8-1.6,21.6-3.4,32.4-5.4c3.4-0.6,9.4-1.6,14.6-2.5C2911.4,1811.6,2907.6,1800.3,2903.1,1789.4z"></path>
<path class="st23" d="M2844.2,1204.6c-29.8-4.7-60.2-5.2-90.1-1.6c-2.7,0.3-5.5,0.7-7.7,2.3c-1.3,1-2.3,2.2-3,3.6l-47.9,7  c9.6,21.6,11.1,47.1,9.8,70.1c-1.4,25.1-6.2,51.3-16.6,74.4c3.4,49.2,5.9,160.3,10,200.4c6.7,64.8,18.6,137.4,30.7,202.5  c2.9,17.4,7.9,38.8,10.5,51.4c0.2,0.9,2.1-0.6,2.6,0.1c0.7,0.7,1.6,1.2,2.6,1.3c6.1,1.6,18.8,0.5,18.8,0.5l-0.1-47.7  c0.1-26.7-2-105-1.6-119.8c1.6-72.4,4-80.1,10.6-152.4c0.7-7.1,1.4-14.3,2.1-21.4c1.6-14.7,3.6-29.5,5.8-44.3  c5.4-23,16.1-38.4,27.1-59.3c9.6-18.3,22-35.2,29.6-54.4C2851.5,1282.1,2848,1242.5,2844.2,1204.6z"></path>
<path class="st10" d="M2844.2,1204.6c-29.8-4.7-60.2-5.2-90.1-1.6c-2.7,0.3-5.5,0.7-7.7,2.3c-1.3,1-2.3,2.2-3,3.6l-47.9,7  c9.6,21.6,11.1,47.1,9.8,70.1c-1.4,25.1-6.2,51.3-16.6,74.4c2.6,37.3,4.6,110.2,7.3,160.8c6.7-0.1,13.4-0.6,20-1.4  c16.5-1.8,32.8-5.2,49.2-8c2.1-0.4,4.2-0.7,6.4-1.1c0.4-4.4,0.8-9,1.3-13.9c0.7-7.1,1.4-14.3,2.1-21.4c1.6-14.7,3.6-29.5,5.8-44.3  c5.4-23,16.1-38.4,27.1-59.3c9.6-18.3,22-35.2,29.6-54.4C2851.5,1282.1,2848,1242.5,2844.2,1204.6z"></path>
<path class="st33" d="M2860.6,1238.3c-9.1-39.2-18.2-78.4-27.4-117.7c-0.3-1.9-0.5-3.8-0.8-5.7c-6.2-47.3-9.4-95.3-20.8-141.7  c-4.8-19.5-11.5-38.6-20.1-56.8c-4.8-5.8-11.1-10.4-17.4-14.1c-9-5.3-19.1-8.7-29.6-8.6c-37.5,0.6-57.2,45.1-71.4,73.5  c-7.8,15.6-19.9,14.4-25.1,31.2c-19.2,13.4-14.9,33.9-2.8,70.7c4.2,12.9,42.7,85,43.6,98.5c8.4,15.2,6.6,40.7,11.9,57.2  c11,34.7,14.5,73.7,2.2,108.6c11-4.6,20.3-14.2,29.9-21.8c25.1-19.9,57-29.3,88.9-26.2c10.5,1.1,22.1,3.3,31-2.4  C2866.3,1274.5,2864.3,1254.2,2860.6,1238.3z"></path>
<line class="st3" x1="2828.6" y1="1811.8" x2="2834.1" y2="1816.7"></line>
<path class="st27" d="M2834.1,1819.2c-0.6,0-1.2-0.2-1.6-0.6l-5.6-4.8c-1-0.9-1.1-2.5-0.2-3.5s2.5-1.1,3.5-0.2l5.5,4.8  c1,0.9,1.1,2.5,0.2,3.5l0,0l0,0C2835.5,1818.9,2834.8,1819.2,2834.1,1819.2z"></path>
<line class="st3" x1="2837.4" y1="1806.3" x2="2843.5" y2="1812.5"></line>
<path class="st27" d="M2843.5,1815c-0.7,0-1.3-0.3-1.8-0.7l-6.1-6.2c-1-1-1-2.6,0-3.5c1-1,2.5-1,3.5,0l0.1,0.1l6.1,6.2  c1,1,1,2.6,0,3.5C2844.8,1814.7,2844.2,1815,2843.5,1815z"></path>
<line class="st3" x1="2845.3" y1="1799.9" x2="2852.4" y2="1807"></line>
<path class="st27" d="M2852.4,1809.5c-0.7,0-1.3-0.3-1.8-0.7l-7-7.1c-1-1-1-2.5-0.1-3.5c1-1,2.5-1,3.5-0.1c0,0,0,0,0.1,0.1l0.1,0.1  l7,7.1c1,1,1,2.6,0,3.5C2853.6,1809.2,2853,1809.5,2852.4,1809.5z"></path>
<path class="st4" d="M2770.4,1807.2c-1.5,1-3.1,1.8-4.9,2.3c-4.1,1.2-8.6,0-12.6-1.1c-4.6-1.2-8.9-3.1-12.8-5.7  c-1.1-0.8-2.1-1.6-3-2.6c-1.7-1.3-3.2-2.7-4.6-4.3c-20.6,17.7-26.9,21.3-72.8,35.4l1.3,9.1c22.9,1.3,45.9,2,68.8,2.1  c10.9,0.1,21.9,0,32.9-0.2c3.5-0.1,9.5-0.1,14.9-0.2C2775,1830.4,2773.1,1818.7,2770.4,1807.2z"></path>
<line class="st3" x1="2689.9" y1="1818.9" x2="2694.5" y2="1824.6"></line>
<path class="st27" d="M2694.5,1827.1c-0.8,0-1.5-0.3-1.9-0.9l-4.6-5.7c-0.9-1-0.9-2.6,0.2-3.5c1-0.9,2.6-0.9,3.5,0.2l0.1,0.1  l0.1,0.1l4.6,5.7c0.9,1.1,0.7,2.6-0.4,3.5C2695.6,1826.9,2695,1827.1,2694.5,1827.1L2694.5,1827.1z"></path>
<line class="st3" x1="2699.5" y1="1815" x2="2704.5" y2="1822.2"></line>
<path class="st27" d="M2704.5,1824.6c-0.8,0-1.6-0.4-2.1-1.1l-5-7.1c-0.8-1.1-0.5-2.7,0.6-3.5s2.7-0.5,3.5,0.6l5,7.1  c0.8,1.1,0.5,2.7-0.6,3.5C2705.5,1824.5,2705,1824.6,2704.5,1824.6L2704.5,1824.6z"></path>
<line class="st3" x1="2708.4" y1="1810" x2="2714.1" y2="1818.2"></line>
<path class="st27" d="M2714.1,1820.7c-0.8,0-1.5-0.4-2-1.1l-5.7-8.2c-0.8-1.1-0.5-2.7,0.7-3.5c1.1-0.7,2.6-0.5,3.4,0.6l5.7,8.2  c0.8,1.1,0.5,2.7-0.6,3.5C2715.2,1820.6,2714.7,1820.7,2714.1,1820.7L2714.1,1820.7z"></path>
<path class="st30" d="M2677.9,726.8c19.5,18.3,51.3,32.1,73.9,46.3c11.5-8,7.9-19.4,7.8-33.4c-0.2-16.6-9.7-34.5-27.5-34.3  C2712.1,705.8,2692.5,713,2677.9,726.8z"></path>
<path class="st30" d="M2684.1,764.9c-0.1-0.4-0.2-0.8-0.1-1.2c0.1-1.3,1.3-2.1,2.5-2l0,0l0,0c11.7,1.6,15.2,10.5,14.6,17.7  c-0.1,1.3-1.2,2.2-2.5,2.1c-1.3-0.1-2.2-1.2-2.1-2.5c0.7-8.3-5.1-12.1-10.6-12.8C2685.1,766.2,2684.4,765.7,2684.1,764.9z"></path>
<path class="st26" d="M2685.2,779.2c-0.8-1.7-2.4-2.8-4.2-2.9c-3.3-0.2-6,2.3-6.2,5.6c0,0.2,0,0.4,0,0.6c0,0.3,0.1,0.6,0.2,0.9  c0.3,0.7,0.7,1.3,1.2,1.9c0.7,0.9,1.6,1.4,2.7,1.6c1.7,0.2,3.4-0.4,4.6-1.7C2685.5,783.5,2686.1,781.2,2685.2,779.2z"></path>
<path class="st26" d="M2682.3,784.5c-0.3-0.5-0.5-1.1-0.7-1.6c-0.1-0.3-0.2-0.6-0.2-0.9c-0.1-0.3-0.2-0.7-0.3-1  c-0.6-1.1-0.3-2.5,0.8-3.1c1-0.6,2.4-0.3,3.1,0.7c0.4,0.7,0.7,1.5,0.9,2.3c0.1,0.2,0.1,0.4,0.2,0.6c0.6,1.8,2.4,3,4.3,2.9  c1.3-0.1,2.4,0.8,2.5,2.1s-0.8,2.4-2.1,2.5C2687.3,789.3,2684,787.5,2682.3,784.5z"></path>
<path class="st27" d="M2644.7,811.1c-1.6,4.2-2.7,8.6-3.3,13c8.3,1.3,17.6,0.4,22.2-5.5L2644.7,811.1z"></path>
<g>
	<g>
		<defs>
			<path id="SVGID_00000150090917774509565100000001597181950140784311_" d="M2860.6,1238.3c-9.1-39.2-18.2-78.4-27.4-117.7     c-0.3-1.9-0.5-3.8-0.8-5.7c-6.2-47.3-9.4-95.3-20.8-141.7c-4.8-19.5-11.5-38.6-20.1-56.8c-4.8-5.8-11.1-10.4-17.4-14.1     c-9-5.3-19.1-8.7-29.6-8.6c-37.5,0.6-57.2,45.1-71.4,73.5c-7.8,15.6-19.9,14.4-25.1,31.2c-19.2,13.4-14.9,33.9-2.8,70.7     c4.2,12.9,42.7,85,43.6,98.5c8.4,15.2,6.6,40.7,11.9,57.2c11,34.7,14.5,73.7,2.2,108.6c11-4.6,20.3-14.2,29.9-21.8     c25.1-19.9,57-29.3,88.9-26.2c10.5,1.1,22.1,3.3,31-2.4C2866.3,1274.5,2864.3,1254.2,2860.6,1238.3z"></path>
		</defs>
		<clipPath id="SVGID_00000036941593683241147980000004142129014881543339_">
			<use xlink:href="#SVGID_00000150090917774509565100000001597181950140784311_" style="overflow:visible;"></use>
		</clipPath>
		<g style="clip-path:url(#SVGID_00000036941593683241147980000004142129014881543339_);">
			<g>
				<path class="st34" d="M2667.8,1141.1c61.4-2.1,121.9-16,178.1-40.8"></path>
				<path class="st34" d="M2649.3,1093.2c63.5-2.7,130.9-21.7,191.8-40"></path>
				<path class="st34" d="M2637.7,1046.3c69.5-8.3,137.8-24.9,203.3-49.5"></path>
				<path class="st34" d="M2612.9,1003.7c77-8,152.9-24.8,226.2-50"></path>
				<path class="st34" d="M2680.8,945.3c49.9-3,98.8-15.5,144-36.8"></path>
				<path class="st34" d="M2716.6,1173.7c58.7,4.4,117-12.6,164.2-47.8"></path>
			</g>
		</g>
	</g>
</g>
<path class="st4" d="M2845.8,1491.5c38.3-101.3,37.8-216.8-1.7-317.6c-54.2,19.3-101.1-25.3-155.3-6c0,13.7-16.8,83.7-17.2,97.3  c-2.2,62.2,1,184.7,2.4,247C2731.5,1520.6,2788.3,1483.1,2845.8,1491.5z"></path>
<path class="st23" d="M2402.5,980.6c-11-8.3-21.9-17-33.6-24c-9.2-5.5-21-9.9-30.3-4.5c-30.9,18.3,20.8,53.9,37.6,67.6  C2384.2,1006.2,2393,993.2,2402.5,980.6z"></path>
<path class="st30" d="M2826.8,828.2c-1.3-24.2,0-50-7.5-73.3c-12-37.3-53.4-54.4-89.8-47.2c6.3,2.5,11.6,6.8,15.4,12.4  c8.6,12.7,6.3,26.3,0.2,39.3c-4.1,8.7-11.1,21.7-14.3,30.8c-2.5,7.2-4.3,14.6-5.3,22.1c6-2.2,19.1-7.2,26.8-1.8s6.9,13.7,1.6,21.3  c-5.3,7.7-13.5,12.8-22.7,14.2c-5.3,0.7-11.3-0.2-15.5-3.7c-22-2.3-18.9,17-28.2,31.4c-2.1,3.2-4.5,6.2-7.2,8.9  c-2.4,2.4-4.7,5.5-8.7,7.8c0.1-0.1,19.9,8.2,21.8,8.9c8.6,2.9,17.5,4.9,26.6,6c14.8,1.6,29.8,1.3,44.6-1c14.1-2,28-4.9,40.9-11.2  c8.9-4.4,15.5-10.5,18.5-20.2C2828.2,858.5,2827.6,842.8,2826.8,828.2z"></path>
<path class="st23" d="M2408.6,985.4c1.8,4.3-0.2,9.3-4.6,11.1c-4,1.7-8.7,0.1-10.8-3.8c-6-11-13.9-20.8-23.4-29  c-3.7-2.9-4.3-8.3-1.3-11.9c2.9-3.7,8.3-4.3,11.9-1.3l0.1,0.1c0.1,0.1,0.2,0.2,0.4,0.3c11,9.5,20.2,20.9,27.2,33.7  C2408.4,984.9,2408.5,985.1,2408.6,985.4z"></path>
<path class="st33" d="M2764.8,914.2c-1.2-14.3-11.7-22.7-26-19.7c-14.5,3.1-28.6,12.6-41,20.6c-13.4,8.7-26.1,18.3-38.7,28.1  c-24.3,19-48,39.1-74.3,55.4c-23,14.2-49,25.7-76.6,24.5c-25.5-1.1-48-13-67.3-28.9c-14.2-6.9-27.5-16.1-40.6-25.8  c-12.7,17.2-24.3,35-34.9,53.6c0.4,0.4,0.9,0.7,1.3,1.1c42.7,36.5,99.2,71,157.5,66.7c43.1-3.2,81.5-27.2,116.7-52.3  c34.2-24.3,67.2-50.2,98.9-77.7c6-5,11.7-10.5,17.1-16.2C2762.5,934.8,2765.6,924.4,2764.8,914.2z"></path>
<g>
	<g>
		<defs>
			<path id="SVGID_00000064347726355004985720000000712724583720443792_" d="M2764.8,914.2c-1.2-14.3-11.7-22.7-26-19.7     c-14.5,3.1-28.6,12.6-41,20.6c-13.4,8.7-26.1,18.3-38.7,28.1c-24.3,19-48,39.1-74.3,55.4c-23,14.2-49,25.7-76.6,24.5     c-25.5-1.1-48-13-67.3-28.9c-14.2-6.9-27.5-16.1-40.6-25.8c-12.7,17.2-24.3,35-34.9,53.6c0.4,0.4,0.9,0.7,1.3,1.1     c42.7,36.5,99.2,71,157.5,66.7c43.1-3.2,81.5-27.2,116.7-52.3c34.2-24.3,67.2-50.2,98.9-77.7c6-5,11.7-10.5,17.1-16.2     C2762.5,934.8,2765.6,924.4,2764.8,914.2z"></path>
		</defs>
		<clipPath id="SVGID_00000057870672759087839110000003109249630102361022_">
			<use xlink:href="#SVGID_00000064347726355004985720000000712724583720443792_" style="overflow:visible;"></use>
		</clipPath>
		<g style="clip-path:url(#SVGID_00000057870672759087839110000003109249630102361022_);">
			<g>
				<path class="st34" d="M2692.6,915.8l56.4,46.3"></path>
				<path class="st34" d="M2652.9,943.2c21.3,17.4,40.4,37.3,56.8,59.4"></path>
				<path class="st34" d="M2614.8,971.1l49.6,62.1"></path>
				<path class="st34" d="M2574.6,997.5l39.8,74.3"></path>
				<path class="st34" d="M2542.5,1093c1.9-30.1,1.2-60.3-2.3-90.2"></path>
				<path class="st34" d="M2473.3,1090.6l22.1-87.8"></path>
				<path class="st34" d="M2414,1070.4c14.4-25.7,27-52.4,37.7-79.9"></path>
			</g>
		</g>
	</g>
</g>
<path class="st23" d="M612.6,616.4c-4.6-1.1-7.4-5.6-6.4-10.2c1.1-4.6,5.6-7.4,10.2-6.3l0,0l0,0c12.3,2.2,25,2.1,37.3-0.2  c4.6-0.9,9,2.2,9.9,6.8s-2.2,9-6.8,9.9l0,0l0,0c-14.3,2.6-29,2.7-43.3,0.2C613.2,616.5,612.9,616.5,612.6,616.4z"></path>
<path class="st23" d="M962.2,122.8l-0.1-0.2c-7.3-4.4-15.2-8-21.7-13.4c-1-0.8-1.9-1.7-2.5-2.8c-0.6-1.1-0.6-2.5,0-3.6  c0.5-0.7,1.3-1.3,2.1-1.6c5.4-2.4,11.3-0.7,16.1,2.3c0.2,0.1,0.5,0.3,0.8,0.5c-1.2-3.3-2.5-6.5-3.9-9.6c-4.3-9.8-5.7-10.8-10.7-20.1  c-2.1-3.8,1.1-6.6,4.4-8c4.2-1.7,8.2-1.3,12.4,0.2c22.5,8.5,29.3,18.7,42,40.2c-10.8,6-26.7,17.4-34.9,22.9  C964.7,127.3,963.4,125.1,962.2,122.8z"></path>
<linearGradient id="SVGID_00000028326516148954468060000003621192458741170852_" gradientUnits="userSpaceOnUse" x1="2390.4099" y1="1019.02" x2="2426.2898" y2="1019.02" gradientTransform="matrix(1 0 0 -1 -589.41 2139.72)">
	<stop offset="4.000000e-02" style="stop-color:#E4E8EC"></stop>
	<stop offset="0.78" style="stop-color:#CED4DD"></stop>
</linearGradient>
<circle style="fill:url(#SVGID_00000028326516148954468060000003621192458741170852_);stroke:#B6BDCC;stroke-miterlimit:10;" cx="1818.9" cy="1120.7" r="17.9"></circle>
<path class="st1" d="M1937.9,1102.8h100c2.7,0,4.8,2.2,4.8,4.8v26.2c0,2.7-2.2,4.8-4.8,4.8h-100c-2.7,0-4.8-2.2-4.8-4.8v-26.2  C1933.1,1104.9,1935.3,1102.8,1937.9,1102.8z"></path>
<circle class="st4" cx="2035.3" cy="1110.4" r="2.7"></circle>
<circle class="st4" cx="2024.7" cy="1110.4" r="2.7"></circle>
<circle class="st4" cx="2014.1" cy="1110.4" r="2.7"></circle>
<g>
	<g>
		<defs>
			<path id="SVGID_00000134218627896679123300000016456643916207029924_" d="M1816.9,1260.1h356.4c17.6,0,31.9,14.3,31.9,31.9v220     c0,17.6-14.3,31.9-31.9,31.9h-356.4c-17.6,0-31.9-14.3-31.9-31.9v-220C1785,1274.4,1799.3,1260.1,1816.9,1260.1z"></path>
		</defs>
		<clipPath id="SVGID_00000005225938675234116610000004541427763979179711_">
			<use xlink:href="#SVGID_00000134218627896679123300000016456643916207029924_" style="overflow:visible;"></use>
		</clipPath>
		<g style="clip-path:url(#SVGID_00000005225938675234116610000004541427763979179711_);">
			
				<linearGradient id="SVGID_00000098938360039449464900000001021399419276374414_" gradientUnits="userSpaceOnUse" x1="3412.8362" y1="864.4597" x2="3626.2161" y2="343.8197" gradientTransform="matrix(0.94 0.33 0.33 -0.94 -1342.7212 735.1486)">
				<stop offset="0.5" style="stop-color:#303030"></stop>
				<stop offset="0.82" style="stop-color:#A9ACAE"></stop>
				<stop offset="0.97" style="stop-color:#E4E8EC"></stop>
			</linearGradient>
			<path style="opacity:0.2;fill:url(#SVGID_00000098938360039449464900000001021399419276374414_);enable-background:new    ;" d="     M2345.6,1773.2c-224.9,108.3-495.3,13.3-603.8-212.2l814.6-392.2C2664.9,1394.3,2570.6,1664.9,2345.6,1773.2z"></path>
		</g>
	</g>
</g>
</svg>
